<svg width="111" height="111" viewBox="0 0 111 111" fill="none" xmlns="http://www.w3.org/2000/svg">
<g clip-path="url(#clip0_65_8656)">
<path d="M39.8706 66.9969C46.7627 62.7455 35.0997 56.1006 31.9198 48.661C27.5393 37.482 34.0411 25.0123 45.1718 19.9624C70.9799 7.33067 97.8703 15.1477 108.518 28.7321C107.723 22.0891 83.3388 -9.26591 39.6064 2.68987C20.2587 7.74178 -1.47634 23.1525 0.909098 43.0834C3.29454 63.0123 25.558 69.1236 25.558 69.1236C25.558 69.1236 33.5088 70.7187 39.8706 66.9989V66.9969Z" fill="#EA632F"/>
<path d="M71.8316 19.759C64.9454 24.0163 76.6143 30.6494 79.8001 38.0869C84.1905 49.262 77.7025 61.7376 66.5758 66.7974C40.7795 79.4549 13.8812 71.6635 3.22168 58.089C4.02405 64.732 28.4383 96.0633 72.1589 84.064C91.5026 78.9963 113.222 63.5639 110.817 43.6369C108.412 23.71 86.1423 17.6204 86.1423 17.6204C86.1423 17.6204 78.1895 16.0352 71.8316 19.7609V19.759Z" fill="#EA632F"/>
<path d="M76.0386 42.7475C76.0386 31.9282 67.2894 23.1585 56.4978 23.1585C45.7061 23.1585 36.9589 31.9302 36.9589 42.7475C36.9589 53.5649 45.7081 62.3385 56.4978 62.3385C67.2874 62.3385 76.0386 53.5668 76.0386 42.7475Z" fill="#EC6930"/>
<path d="M46.8791 41.0398H44.7303V43.546H42.3429C42.2187 43.5717 42.1201 43.6033 42.0471 43.6389C41.8106 43.7634 41.6292 43.969 41.505 44.2556C41.4537 44.3682 41.4281 44.5303 41.4281 44.7418C41.4281 45.0165 41.4833 45.2675 41.5917 45.4988C41.7021 45.73 41.8598 45.8882 42.0708 45.9751C42.2285 46.0265 42.3783 46.0502 42.5262 46.0502C42.7253 46.0502 42.9185 46.0067 43.1058 45.9158C43.1689 45.8901 43.2418 45.8447 43.3246 45.7814C43.2891 45.7063 43.2675 45.651 43.2556 45.6134C43.1965 45.4513 43.1689 45.3209 43.1689 45.2201C43.1689 45.0086 43.23 44.8367 43.3562 44.7042C43.4804 44.5738 43.642 44.5066 43.8392 44.5066C44.1507 44.5066 44.4503 44.6647 44.7421 44.977C45.0319 45.2893 45.1778 45.5917 45.1778 45.8802C45.1778 46.1688 45.0891 46.4258 44.9116 46.6511C44.8604 46.7143 44.7717 46.7954 44.6475 46.8962L45.4203 48.9754L44.6238 49.4023L43.8609 47.2816H43.4094C43.2221 47.2816 43.0309 47.2598 42.8337 47.2164C42.6366 47.1729 42.4335 47.0958 42.2265 46.9851C41.8934 46.7875 41.5838 46.5088 41.2921 46.149C40.949 45.7162 40.7046 45.2399 40.5607 44.7181C40.4996 44.5066 40.4582 44.3188 40.4365 44.1508C40.4148 43.9848 40.4049 43.8128 40.4049 43.6409C40.4049 43.0084 40.6238 42.5499 41.0614 42.2652C41.2053 42.1783 41.4242 42.0972 41.7159 42.0241H43.3246V41.0398H39.9397L39.2852 39.5634H46.2108L46.8791 41.0398Z" fill="white"/>
<path d="M47.2852 51.9856L46.958 52.3552L46.335 51.4421C45.9309 50.859 45.645 50.4796 45.4794 50.3056C45.1581 49.9578 44.8407 49.7542 44.5311 49.6909C44.4681 49.6672 44.4089 49.6534 44.3517 49.6534H44.2197C43.8983 49.6534 43.6381 49.766 43.4409 49.9894C43.2438 50.2147 43.1452 50.4697 43.1452 50.7563C43.1452 51.0053 43.2182 51.1812 43.3641 51.28C43.437 51.3294 43.5257 51.3551 43.6282 51.3551C43.8155 51.3551 44.0324 51.2622 44.2827 51.0765C44.3557 51.0152 44.4602 50.9203 44.5942 50.7978L45.2941 51.616C45.1797 51.7524 45.0871 51.8512 45.0141 51.9125C44.7657 52.122 44.4996 52.2287 44.2197 52.2287C44.0324 52.2287 43.853 52.1951 43.6834 52.126C43.5119 52.0568 43.3227 51.9362 43.1157 51.7623C42.6602 51.3769 42.4335 50.8413 42.4335 50.1574C42.4335 49.6969 42.5735 49.2996 42.8534 48.9636C43.1334 48.6651 43.4705 48.5149 43.8648 48.5149C44.1861 48.5149 44.5095 48.6177 44.8288 48.8233C45.1521 49.0288 45.4636 49.349 45.7633 49.7858L47.2892 51.9876L47.2852 51.9856Z" fill="white"/>
<path d="M45.5031 40.188H45.369V40.0101H45.5031V40.188Z" fill="white"/>
<path d="M52.202 41.0398H49.9388V43.72C49.9092 43.8445 49.8777 43.9433 49.8461 44.0184C49.7535 44.2417 49.6194 44.4453 49.444 44.6331C49.2685 44.8189 49.0635 44.9691 48.8269 45.0798C48.7559 45.1055 48.6475 45.141 48.5036 45.1924L50.272 47.8172L49.649 48.4971L47.4075 45.0659L47.0487 44.4552C46.8831 44.1726 46.8003 43.882 46.8003 43.5875C46.8003 43.2179 46.9442 42.9946 47.2301 42.9215C47.4154 42.872 47.5829 42.9274 47.7387 43.0875C47.7899 43.1369 47.8511 43.2239 47.924 43.3464C47.9851 43.3464 48.0541 43.3424 48.131 43.3365C48.2079 43.3306 48.2789 43.293 48.3459 43.2239C48.4129 43.1547 48.4661 43.0717 48.5075 42.9709C48.5174 42.9333 48.5332 42.8839 48.5529 42.8206V41.0418H46.2345L45.5859 39.5654H51.5475L52.202 41.0418V41.0398Z" fill="white"/>
<path d="M50.684 40.188H50.5499V40.0101H50.684V40.188Z" fill="white"/>
<path d="M58.349 41.0398H56.2001V43.546H53.8127C53.6885 43.5717 53.5919 43.6033 53.5189 43.6389C53.2804 43.7634 53.099 43.969 52.9748 44.2556C52.9236 44.3682 52.8979 44.5303 52.8979 44.7418C52.8979 45.0165 52.9531 45.2675 53.0616 45.4988C53.17 45.73 53.3297 45.8882 53.5386 45.9751C53.6964 46.0265 53.8462 46.0502 53.994 46.0502C54.1932 46.0502 54.3864 46.0067 54.5737 45.9158C54.6367 45.8901 54.7097 45.8447 54.7925 45.7814C54.759 45.7063 54.7353 45.651 54.7235 45.6134C54.6663 45.4513 54.6367 45.3209 54.6367 45.2201C54.6367 45.0086 54.6979 44.8367 54.824 44.7042C54.9482 44.5738 55.1099 44.5066 55.307 44.5066C55.6185 44.5066 55.9182 44.6647 56.2099 44.977C56.4997 45.2893 56.6456 45.5917 56.6456 45.8802C56.6456 46.1688 56.5569 46.4258 56.3795 46.6511C56.3263 46.7143 56.2395 46.7954 56.1133 46.8962L56.8861 48.9754L56.0897 49.4023L55.3267 47.2816H54.8753C54.688 47.2816 54.4968 47.2598 54.2996 47.2164C54.1025 47.1729 53.8994 47.0958 53.6924 46.9851C53.3592 46.7875 53.0478 46.5088 52.758 46.149C52.4149 45.7162 52.1724 45.2399 52.0266 44.7181C51.9654 44.5066 51.924 44.3188 51.9024 44.1508C51.8826 43.9848 51.8708 43.8128 51.8708 43.6409C51.8708 43.0084 52.0896 42.5499 52.5273 42.2652C52.6732 42.1783 52.89 42.0972 53.1818 42.0241H54.7905V41.0398H51.4056L50.751 39.5634H57.6767L58.345 41.0398H58.349Z" fill="white"/>
<path d="M56.9414 40.188H56.8073V40.0101H56.9414V40.188Z" fill="white"/>
<path d="M63.8414 41.0398H61.5328C61.6748 41.2632 61.7812 41.443 61.8522 41.5814C62.075 42.0162 62.211 42.3759 62.2623 42.6625C62.3115 42.9491 62.3391 43.2278 62.3391 43.5025C62.3391 43.8504 62.2899 44.2022 62.1913 44.556C62.0947 44.9098 61.9468 45.2715 61.7517 45.6371C61.5565 46.0048 61.2746 46.325 60.9039 46.5977C60.7817 46.6847 60.6161 46.7835 60.4111 46.8962L61.4559 48.4675L60.8862 49.0248L59.656 47.1294C59.5515 47.159 59.4687 47.1729 59.4076 47.1729C59.3031 47.1729 59.1967 47.1571 59.0882 47.1254C58.9798 47.0938 58.8674 47.0345 58.7531 46.9475C58.5875 46.823 58.4633 46.6847 58.3805 46.5364C58.2662 46.3487 58.209 46.1372 58.209 45.9C58.209 45.7893 58.2188 45.6569 58.2386 45.5067C58.2602 45.3565 58.3352 45.2161 58.4653 45.0857C58.5954 44.9552 58.7432 44.888 58.9108 44.888C59.0252 44.888 59.1494 44.9256 59.2854 44.9987C59.4214 45.0719 59.5574 45.1845 59.6915 45.3328C59.7329 45.3822 59.7861 45.4513 59.8492 45.5363C59.9399 45.4731 60.0129 45.4237 60.0641 45.3861C60.2376 45.2497 60.3914 45.0817 60.5234 44.8821C60.6575 44.6825 60.758 44.5086 60.831 44.3603C60.8507 44.3109 60.8763 44.2417 60.9079 44.1548C60.555 44.1054 60.281 44.05 60.0858 43.9868C59.4845 43.7753 59.0606 43.4334 58.8122 42.961C58.6782 42.6882 58.6112 42.3759 58.6112 42.0281C58.6112 41.779 58.6368 41.5438 58.692 41.3205C58.7018 41.2454 58.7354 41.1525 58.7886 41.0398H57.6806L57.0261 39.5634H63.1731L63.8414 41.0398ZM61.1346 42.1743C61.0735 41.7771 60.9572 41.4905 60.7876 41.3106C60.6181 41.1307 60.4446 41.0418 60.2711 41.0418C60.1252 41.0537 60.005 41.1584 59.9123 41.358C59.8177 41.5557 59.7723 41.7731 59.7723 42.0083C59.7723 42.2316 59.8078 42.4293 59.8808 42.6032C59.9931 42.9135 60.2199 43.1725 60.5589 43.3839C60.6713 43.4452 60.831 43.5203 61.036 43.6073C61.0695 43.4966 61.0991 43.3622 61.1267 43.208C61.1543 43.0539 61.1681 42.8582 61.1681 42.623V42.3996C61.1484 42.3008 61.1385 42.2257 61.1385 42.1763L61.1346 42.1743Z" fill="white"/>
<path d="M66.5304 41.0398H64.969V48.4971L63.5851 47.3765V41.0418H62.6782L62.0217 39.5654H65.8739L66.5284 41.0418L66.5304 41.0398Z" fill="white"/>
<path d="M65.592 35.9069L65.4047 36.1737C65.3416 36.1223 65.2904 36.0907 65.249 36.0788C65.1149 36.0156 64.969 35.984 64.8133 35.984C64.5333 35.984 64.3027 36.0927 64.1213 36.3121C63.9399 36.5315 63.8492 36.8358 63.8492 37.2213C63.8492 37.3339 63.8591 37.5039 63.8808 37.7272C63.9005 37.9526 64.0917 38.3775 64.4525 39.0021C64.5668 39.2037 64.7403 39.4725 64.9789 39.8085H64.4959C64.2356 39.4843 64.0385 39.2096 63.9044 38.9843C63.4786 38.2866 63.1947 37.581 63.0488 36.8694C63.0173 36.7192 63.0015 36.569 63.0015 36.4188C63.0015 36.0196 63.11 35.6836 63.3288 35.4088C63.5476 35.1341 63.8394 34.9977 64.2021 34.9977C64.3263 34.9977 64.4978 35.0353 64.7167 35.1084C64.9355 35.1815 65.1484 35.3377 65.3554 35.5729C65.4185 35.648 65.4954 35.7587 65.59 35.9069H65.592Z" fill="white"/>
<path d="M70.4812 41.0398H65.8897L65.2352 39.5634H69.8266L70.4812 41.0398ZM70.6822 44.1943H68.5669C68.5038 44.2437 68.4565 44.2892 68.4269 44.3267C68.3224 44.4789 68.2712 44.6904 68.2712 44.9671C68.2929 45.1549 68.2416 45.3071 68.1233 45.4276C68.0031 45.5462 67.8611 45.6055 67.6955 45.6055C67.5398 45.6055 67.4156 45.568 67.3229 45.4929C67.1672 45.3683 66.9799 45.0817 66.763 44.6311C66.5146 44.1311 66.3885 43.7437 66.3885 43.4689C66.3885 43.1685 66.4929 42.957 66.6999 42.8305C66.763 42.793 66.8715 42.7574 67.0272 42.7179H70.6842V44.1943H70.6822Z" fill="white"/>
<path d="M73.5172 41.0398H71.9558V48.4971L70.5718 47.3765V41.0418H69.665L69.0085 39.5654H72.8607L73.5152 41.0418L73.5172 41.0398Z" fill="white"/>
<path d="M11.3894 102.323C11.3144 102.372 11.1429 102.435 10.8728 102.515C10.6027 102.594 10.3011 102.633 9.96795 102.633C9.69589 102.633 9.33906 102.481 8.89548 102.177C8.74763 102.08 8.55048 101.92 8.30405 101.702C8.24294 101.825 8.19365 101.918 8.15817 101.979C8.02411 102.2 7.91371 102.366 7.82894 102.477C7.67122 102.675 7.42085 102.87 7.07979 103.068C7.01868 103.106 6.93391 103.147 6.82351 103.196L7.85457 104.396C8.1976 104.778 8.51697 105.092 8.81268 105.337C8.94674 105.448 9.08869 105.552 9.23654 105.649L8.73974 106.074C8.71608 106.074 8.42825 105.792 7.87625 105.222C7.19019 104.519 6.64608 103.884 6.24193 103.317C5.65444 102.491 5.3607 101.831 5.3607 101.337C5.3607 101.188 5.40801 101.06 5.50659 100.947C5.60319 100.837 5.73133 100.781 5.88904 100.781H7.01671V98.36H4.90924V97.1266H10.3938V98.36H8.27054C8.33165 98.5576 8.39671 98.8719 8.46965 99.3028C8.5426 99.7336 8.57808 100.089 8.57808 100.374C8.58991 100.546 8.58991 100.706 8.57414 100.854C8.56034 101.003 8.54457 101.107 8.53077 101.167C8.653 101.242 8.74368 101.297 8.8048 101.333C9.03546 101.455 9.2188 101.516 9.35483 101.516C9.72152 101.516 10.1 101.426 10.4904 101.246C11.0266 100.993 11.3263 100.781 11.3874 100.613V102.321L11.3894 102.323Z" fill="#EC6B31"/>
<path d="M13.7492 98.3639H12.7556V106.284L11.1942 105.268V98.362H10.1769V97.1286H13.7512V98.362L13.7492 98.3639Z" fill="#EC6B31"/>
<path d="M18.1257 98.3639H13.5244V97.1306H18.1257V98.3639ZM19.285 101.236H16.3653C16.0222 101.236 15.7324 101.352 15.4919 101.586C15.2534 101.819 15.1331 102.163 15.1331 102.617C15.1331 103.159 15.3716 103.718 15.8468 104.295C16.0045 104.479 16.243 104.712 16.5604 104.995L16.0636 105.345C15.6102 104.94 15.275 104.594 15.0542 104.311C14.38 103.449 14.0429 102.57 14.0429 101.671C14.0429 101.167 14.1848 100.742 14.4668 100.398C14.7487 100.054 15.1035 99.8799 15.5333 99.8799H19.285V101.234V101.236Z" fill="#EC6B31"/>
<path d="M23.4605 103.362C23.216 103.523 23.0129 103.639 22.8532 103.712C22.3387 103.957 21.8596 104.082 21.418 104.082C20.6314 104.082 19.971 103.724 19.4308 103.011C18.7428 102.111 18.3998 101.307 18.3998 100.593C18.4116 100.609 18.4865 100.617 18.6206 100.617C19.0168 100.617 19.3677 100.556 19.6773 100.431C20.1346 100.248 20.3633 99.9708 20.3633 99.5992C20.3633 99.2277 20.2648 98.9272 20.0676 98.6564C20.0065 98.5715 19.906 98.4726 19.7719 98.36H17.901V97.1266H22.595V98.36H20.4599C20.6452 98.4469 20.8503 98.7177 21.073 99.1743C21.2465 99.5202 21.3333 99.8582 21.3333 100.19C21.3333 100.769 21.1677 101.194 20.8345 101.467C20.5013 101.738 20.0716 101.874 19.5432 101.874C19.628 102.105 19.7029 102.277 19.764 102.388C19.9848 102.742 20.2667 102.92 20.6098 102.92C21.1736 102.92 21.8163 102.681 22.5398 102.2C22.7724 102.04 23.078 101.801 23.4585 101.481V103.362H23.4605Z" fill="#EC6B31"/>
<path d="M25.9484 98.3639H24.9548V106.284L23.3934 105.268V98.362H22.3762V97.1286H25.9504V98.362L25.9484 98.3639Z" fill="#EC6B31"/>
<path d="M31.2279 102.374H28.6375V103.374C28.6375 103.471 28.5941 103.55 28.5093 103.612C28.4245 103.673 28.3279 103.702 28.2175 103.702C27.8292 103.702 27.3659 103.451 26.8277 102.947C26.2875 102.445 26.0194 101.999 26.0194 101.611C26.0194 101.297 26.1594 101.139 26.4413 101.139H27.1924V98.362H25.7256V97.1286H30.2462V98.362H28.6375V101.139H31.2279V102.374Z" fill="#EC6B31"/>
<path d="M33.6232 98.3639H32.6296V106.284L31.0682 105.268V98.362H30.051V97.1286H33.6252V98.362L33.6232 98.3639Z" fill="#EC6B31"/>
<path d="M34.4295 109.996L34.0057 110.27L32.7361 108.448C32.6395 108.29 32.3871 108.211 31.981 108.211C31.7839 108.211 31.5571 108.258 31.2989 108.355C31.2141 108.379 31.0978 108.432 30.9499 108.517L30.2875 107.171C30.4965 107.134 30.6562 107.11 30.7666 107.098C31.1215 107.049 31.3975 107.023 31.5946 107.023C31.8391 107.023 32.0737 107.062 32.2925 107.144C32.5133 107.223 32.6986 107.365 32.8445 107.574C33.2368 108.124 33.6173 108.687 33.986 109.262C34.1082 109.458 34.256 109.703 34.4276 109.996H34.4295Z" fill="#EC6B31"/>
<path d="M47.2183 96.6108L46.8693 97.0357C46.2818 96.4171 45.7969 95.9586 45.4164 95.6581C44.2513 94.741 43.1788 94.2825 42.199 94.2825C41.6233 94.2825 41.1817 94.3695 40.8762 94.5414C40.4838 94.7628 40.2867 95.1462 40.2867 95.6878C40.2867 95.9961 40.3912 96.3282 40.5982 96.6859C40.6593 96.7966 40.7618 96.9448 40.9097 97.1306H42.4868V98.3639H41.5169V106.284L39.9555 105.268V98.362H38.9382V97.1286H40.2256C39.993 96.8836 39.8195 96.6819 39.7091 96.5219C39.3522 96.008 39.1748 95.5158 39.1748 95.0513C39.1748 94.4268 39.37 93.9366 39.7643 93.5808C40.1566 93.2251 40.6968 93.0472 41.3828 93.0472C42.2424 93.0472 43.1748 93.3555 44.1803 93.9702C44.9294 94.4248 45.6529 94.992 46.3528 95.668C46.6347 95.9882 46.9245 96.3005 47.2183 96.6088V96.6108Z" fill="#EC6B31"/>
<path d="M47.4706 100.825C47.4706 101.7 47.2695 102.445 46.8653 103.06C46.4632 103.677 46.0156 104.046 45.5248 104.169L46.1497 104.789L47.0704 105.647L46.2325 106.213L45.5346 105.205L45.0023 104.343C44.8919 104.37 44.7697 104.396 44.6356 104.422C44.5016 104.45 44.3478 104.461 44.1763 104.461C43.7978 104.461 43.4685 104.355 43.1945 104.139C42.9185 103.926 42.7805 103.671 42.7805 103.376C42.7805 102.58 43.1038 102.183 43.7505 102.183C44.0679 102.183 44.3182 102.301 44.5016 102.538C44.5509 102.609 44.612 102.728 44.6849 102.894C44.7697 102.845 44.9136 102.744 45.1147 102.59C45.3158 102.435 45.4715 102.283 45.5819 102.129C45.6923 101.975 45.8146 101.758 45.9486 101.475C45.9841 101.39 46.0334 101.273 46.0945 101.125C45.3631 101.014 44.8131 100.886 44.4464 100.738C43.3345 100.283 42.7805 99.5775 42.7805 98.6189C42.7805 98.1406 42.9422 97.7552 43.2675 97.4666C43.5927 97.178 43.9693 97.0338 44.3971 97.0338C45.1324 97.0338 45.8284 97.431 46.4829 98.2256C47.1374 99.0201 47.4666 99.8858 47.4666 100.823L47.4706 100.825ZM46.2167 100.607C46.2167 100.004 46.1931 99.5558 46.1438 99.2613C45.9959 98.3639 45.6864 97.9153 45.2093 97.9153C44.8801 97.9153 44.5864 98.0694 44.3301 98.3758C44.0738 98.6841 43.9456 99.034 43.9456 99.4273C43.9831 99.8463 44.3734 100.166 45.1186 100.388C45.3631 100.461 45.7298 100.536 46.2187 100.609L46.2167 100.607ZM48.545 98.3639H47.6795L47.0901 97.1306H48.545V98.3639Z" fill="#EC6B31"/>
<path d="M51.8984 98.3639H50.9048V106.284L49.3434 105.268V98.362H48.3262V97.1286H51.9004V98.362L51.8984 98.3639Z" fill="#EC6B31"/>
<path d="M56.1074 98.3639H51.6717V97.1306H56.1074V98.3639ZM56.9532 103.554C56.7324 103.74 56.549 103.874 56.4031 103.961C55.9379 104.232 55.4667 104.369 54.9896 104.369C54.3154 104.369 53.6964 104.056 53.1345 103.43C52.5707 102.805 52.2888 102.173 52.2888 101.534C52.2888 100.835 52.5766 100.327 53.1522 100.006C53.6175 99.7495 54.2365 99.621 55.0074 99.621H55.723L56.3282 101.08C56.2671 101.056 56.139 101.028 55.9438 100.997C55.7467 100.965 55.5337 100.949 55.3011 100.949C54.69 100.949 54.1991 101.09 53.8324 101.372C53.4657 101.655 53.2824 102.022 53.2824 102.475C53.2824 102.647 53.3533 102.803 53.4933 102.943C53.6333 103.084 53.8087 103.155 54.0177 103.155C54.6525 103.155 55.3327 102.922 56.0562 102.455C56.6555 102.062 56.9551 101.811 56.9551 101.7V103.55L56.9532 103.554Z" fill="#EC6B31"/>
<path d="M59.4609 98.3639H58.4672V106.284L56.9059 105.268V98.362H55.8886V97.1286H59.4628V98.362L59.4609 98.3639Z" fill="#EC6B31"/>
<path d="M64.7384 102.374H62.1479V103.374C62.1479 103.471 62.1045 103.55 62.0198 103.612C61.935 103.673 61.8384 103.702 61.728 103.702C61.3396 103.702 60.8763 103.451 60.3381 102.947C59.798 102.445 59.5298 101.999 59.5298 101.611C59.5298 101.297 59.6698 101.139 59.9517 101.139H60.7028V98.362H59.2341V97.1286H63.7546V98.362H62.1459V101.139H64.7364V102.374H64.7384Z" fill="#EC6B31"/>
<path d="M67.1337 98.3639H66.1401V106.284L64.5787 105.268V98.362H63.5615V97.1286H67.1357V98.362L67.1337 98.3639Z" fill="#EC6B31"/>
<path d="M67.94 109.996L67.5162 110.27L66.2466 108.448C66.15 108.29 65.8976 108.211 65.4915 108.211C65.2944 108.211 65.0676 108.258 64.8094 108.355C64.7246 108.379 64.6083 108.432 64.4604 108.517L63.798 107.171C64.007 107.134 64.1667 107.11 64.2771 107.098C64.6339 107.049 64.908 107.023 65.1051 107.023C65.3496 107.023 65.5842 107.062 65.803 107.144C66.0238 107.223 66.2091 107.365 66.355 107.574C66.7473 108.124 67.1278 108.687 67.4965 109.262C67.6187 109.458 67.7665 109.703 67.9381 109.996H67.94Z" fill="#EC6B31"/>
<path d="M78.9268 102.323C78.8539 102.372 78.6804 102.435 78.4103 102.515C78.1402 102.594 77.8386 102.633 77.5054 102.633C77.2353 102.633 76.8765 102.481 76.4329 102.177C76.2851 102.08 76.0879 101.92 75.8415 101.702C75.7804 101.825 75.7311 101.918 75.6956 101.979C75.5616 102.2 75.4512 102.366 75.3664 102.477C75.2087 102.675 74.9583 102.87 74.6172 103.068C74.5561 103.106 74.4714 103.147 74.3629 103.196L75.394 104.396C75.737 104.778 76.0564 105.092 76.3521 105.337C76.4862 105.448 76.6281 105.552 76.774 105.649L76.2772 106.074C76.2535 106.074 75.9657 105.792 75.4137 105.222C74.7276 104.519 74.1835 103.884 73.7794 103.317C73.1919 102.491 72.8982 101.831 72.8982 101.337C72.8982 101.188 72.9474 101.06 73.044 100.947C73.1406 100.837 73.2688 100.781 73.4265 100.781H74.5542V98.36H72.4487V97.1266H77.9332V98.36H75.81C75.8711 98.5576 75.9361 98.8719 76.0091 99.3028C76.082 99.7336 76.1175 100.089 76.1175 100.374C76.1293 100.546 76.1293 100.706 76.1155 100.854C76.1017 101.003 76.086 101.107 76.0702 101.167C76.1924 101.242 76.2831 101.297 76.3462 101.333C76.5788 101.455 76.7602 101.516 76.8962 101.516C77.2629 101.516 77.6414 101.426 78.0318 101.246C78.57 100.993 78.8677 100.781 78.9288 100.613V102.321L78.9268 102.323Z" fill="#EC6B31"/>
<path d="M81.2866 98.3639H80.293V106.284L78.7316 105.268V98.362H77.7144V97.1286H81.2886V98.362L81.2866 98.3639Z" fill="#EC6B31"/>
<path d="M81.4404 107.606C81.4404 108.171 81.1821 108.634 80.6676 108.99C80.2142 109.31 79.6819 109.47 79.0688 109.47C78.1619 109.47 77.3162 109.191 76.5315 108.636C75.9302 108.215 75.6188 107.9 75.5951 107.691L75.944 107.357C75.9933 107.59 76.3068 107.825 76.8824 108.059C77.3615 108.254 77.9194 108.353 78.5562 108.353C79.0352 108.353 79.4729 108.215 79.8711 107.94C80.2713 107.665 80.4685 107.375 80.4685 107.07C80.4685 106.887 80.4192 106.746 80.3226 106.649C80.226 106.553 80.1018 106.503 79.9559 106.503C79.6365 106.503 79.3053 106.612 78.9564 106.831C78.6074 107.051 78.434 107.201 78.434 107.286L77.6789 106.039C77.8504 105.902 78.0949 105.776 78.4142 105.659C78.7336 105.541 79.0155 105.483 79.258 105.483C79.808 105.483 80.3088 105.716 80.7622 106.185C81.2137 106.651 81.4404 107.126 81.4404 107.606Z" fill="#EC6B31"/>
<path d="M85.5883 98.3639H81.0974V97.1306H85.5883V98.3639ZM86.5819 101.758H83.8909V103.167C83.8909 103.264 83.8574 103.347 83.7884 103.414C83.7213 103.481 83.6366 103.515 83.54 103.515C83.1575 103.515 82.7415 103.198 82.294 102.568C81.8445 101.935 81.6198 101.35 81.6198 100.811C81.6198 100.542 81.7795 100.408 82.0969 100.408H86.5819V101.76V101.758Z" fill="#EC6B31"/>
<path d="M92.305 98.3639H90.5268V100.761H87.9402C87.6327 100.761 87.3823 100.906 87.1911 101.196C86.9999 101.485 86.9052 101.89 86.9052 102.406C86.9052 102.702 87.0038 102.961 87.201 103.183C87.3981 103.404 87.6071 103.517 87.8279 103.517C88.2458 103.517 88.6204 103.477 88.9516 103.398C89.062 103.376 89.1842 103.337 89.3202 103.279C89.269 103.23 89.2355 103.187 89.2236 103.149C89.1468 103.015 89.1073 102.866 89.1073 102.704C89.1073 102.434 89.2 102.222 89.3853 102.074C89.5706 101.926 89.8052 101.852 90.0891 101.852C90.373 101.852 90.6352 101.953 90.8383 102.155C91.0413 102.356 91.1438 102.617 91.1438 102.936C91.1438 103.327 91.0058 103.665 90.7279 103.946C90.6352 104.031 90.4952 104.135 90.3099 104.258L91.1438 105.799L90.3099 106.189L89.7993 104.461C89.7382 104.483 89.6633 104.503 89.5785 104.525C89.4918 104.546 89.3498 104.556 89.1546 104.556C88.3523 104.556 87.6169 104.262 86.9466 103.673C86.2744 103.084 85.9392 102.382 85.9392 101.572C85.9392 100.995 86.1048 100.528 86.44 100.17C86.8343 99.7416 87.2857 99.5261 87.7904 99.5261H89.2532V98.3639H85.3715V97.1306H92.3089V98.3639H92.305Z" fill="#EC6B31"/>
<path d="M90.8086 97.605C90.9151 97.5556 90.9802 97.5793 91.0038 97.6761C91.0413 97.771 91.0176 97.8421 90.9328 97.8896C90.8382 97.9271 90.7672 97.9034 90.7199 97.8184C90.6825 97.7117 90.712 97.6405 90.8086 97.605Z" fill="#EC6B31"/>
<path d="M98.6727 98.3639H96.654C96.7052 98.5003 96.7722 98.7751 96.855 99.1881C96.9378 99.6012 96.9792 100 96.9792 100.382C96.9792 101.356 96.6106 102.103 95.8752 102.619C95.6308 102.793 95.2562 102.959 94.7535 103.119C94.8875 103.305 94.9979 103.446 95.0847 103.544C95.3291 103.841 95.5618 104.112 95.7826 104.359C96.1019 104.716 96.4568 105.068 96.8511 105.412C97.0226 105.547 97.1941 105.689 97.3656 105.837L96.7742 106.337C96.7367 106.337 96.4312 106.035 95.8555 105.43C95.1202 104.653 94.5425 103.973 94.1266 103.394C93.5135 102.53 93.2059 101.845 93.2059 101.341C93.2059 100.971 93.3814 100.785 93.7343 100.785H95.3765V98.3639H92.1571V97.1306H98.6727V98.3639Z" fill="#EC6B31"/>
<path d="M97.342 97.605C97.4485 97.5556 97.5135 97.5793 97.5372 97.6761C97.5747 97.771 97.551 97.8421 97.4662 97.8896C97.3716 97.9271 97.3006 97.9034 97.2533 97.8184C97.2159 97.7117 97.2454 97.6405 97.342 97.605Z" fill="#EC6B31"/>
<path d="M103.881 102.374H101.289V103.374C101.289 103.471 101.247 103.55 101.161 103.612C101.076 103.673 100.979 103.702 100.871 103.702C100.483 103.702 100.019 103.451 99.481 102.947C98.9428 102.445 98.6727 101.999 98.6727 101.611C98.6727 101.297 98.8147 101.139 99.0946 101.139H99.8457V98.362H98.377V97.1286H102.898V98.362H101.289V101.139H103.881V102.374Z" fill="#EC6B31"/>
<path d="M106.277 98.3639H105.283V106.284L103.722 105.268V98.362H102.704V97.1286H106.279V98.362L106.277 98.3639Z" fill="#EC6B31"/>
<path d="M107.083 109.996L106.659 110.27L105.389 108.448C105.291 108.29 105.04 108.211 104.634 108.211C104.437 108.211 104.211 108.258 103.952 108.355C103.866 108.379 103.749 108.432 103.603 108.517L102.941 107.171C103.15 107.134 103.31 107.11 103.418 107.098C103.775 107.049 104.051 107.023 104.246 107.023C104.492 107.023 104.725 107.062 104.946 107.144C105.167 107.223 105.35 107.365 105.498 107.574C105.89 108.124 106.271 108.687 106.639 109.262C106.764 109.458 106.909 109.703 107.081 109.996H107.083Z" fill="#EC6B31"/>
</g>
<defs>
<clipPath id="clip0_65_8656">
<rect width="110.27" height="110.27" fill="white" transform="translate(0.729736)"/>
</clipPath>
</defs>
</svg>
